<mxfile host="65bd71144e">
    <diagram id="S9_ol3plgFHYAdwla_OP" name="Page-1">
        <mxGraphModel dx="1829" dy="662" grid="0" gridSize="10" guides="1" tooltips="1" connect="1" arrows="1" fold="1" page="1" pageScale="1" pageWidth="850" pageHeight="1100" background="#FFFFFF" math="0" shadow="0">
            <root>
                <mxCell id="0"/>
                <mxCell id="1" parent="0"/>
                <mxCell id="4" style="edgeStyle=none;html=1;exitX=0.5;exitY=1;exitDx=0;exitDy=0;entryX=0.5;entryY=0;entryDx=0;entryDy=0;fillColor=none;strokeColor=#000000;fontColor=#000000;labelBackgroundColor=none;" parent="1" source="2" target="3" edge="1">
                    <mxGeometry relative="1" as="geometry"/>
                </mxCell>
                <mxCell id="2" value="НАЧАЛО" style="ellipse;whiteSpace=wrap;html=1;fillColor=none;strokeColor=#000000;fontColor=#000000;labelBackgroundColor=none;" parent="1" vertex="1">
                    <mxGeometry x="-419" y="192" width="120" height="80" as="geometry"/>
                </mxCell>
                <mxCell id="6" value="" style="edgeStyle=none;html=1;entryX=0.5;entryY=0;entryDx=0;entryDy=0;fillColor=none;strokeColor=#000000;fontColor=#000000;labelBackgroundColor=none;" parent="1" source="3" target="13" edge="1">
                    <mxGeometry relative="1" as="geometry">
                        <mxPoint x="-359" y="382" as="targetPoint"/>
                    </mxGeometry>
                </mxCell>
                <mxCell id="3" value="Открытый ключ: g, p&lt;br&gt;М - сообщение&lt;br&gt;Закрытый ключ: x" style="shape=parallelogram;perimeter=parallelogramPerimeter;whiteSpace=wrap;html=1;fixedSize=1;fillColor=none;strokeColor=#000000;fontColor=#000000;labelBackgroundColor=none;" parent="1" vertex="1">
                    <mxGeometry x="-439" y="302" width="160" height="60" as="geometry"/>
                </mxCell>
                <mxCell id="8" value="" style="edgeStyle=none;html=1;exitX=0.5;exitY=1;exitDx=0;exitDy=0;entryX=0.5;entryY=0;entryDx=0;entryDy=0;fillColor=none;strokeColor=#000000;fontColor=#000000;labelBackgroundColor=none;" parent="1" source="13" target="14" edge="1">
                    <mxGeometry relative="1" as="geometry">
                        <mxPoint x="-359" y="462" as="sourcePoint"/>
                        <mxPoint x="-359" y="482" as="targetPoint"/>
                    </mxGeometry>
                </mxCell>
                <mxCell id="13" value="Получение открытого ключа" style="rounded=0;whiteSpace=wrap;html=1;fillColor=none;strokeColor=#000000;fontColor=#000000;labelBackgroundColor=none;" parent="1" vertex="1">
                    <mxGeometry x="-459" y="392" width="200" height="60" as="geometry"/>
                </mxCell>
                <mxCell id="77" style="edgeStyle=none;html=1;exitX=1;exitY=0.5;exitDx=0;exitDy=0;entryX=0;entryY=0.5;entryDx=0;entryDy=0;strokeColor=#000000;fontSize=13;" edge="1" parent="1" source="14" target="71">
                    <mxGeometry relative="1" as="geometry"/>
                </mxCell>
                <mxCell id="14" value="&lt;p style=&quot;font-size: 13px;&quot;&gt;&lt;span style=&quot;font-family: &amp;quot;Cambria Math&amp;quot;;&quot;&gt;R&lt;/span&gt;&lt;span style=&quot;font-family: &amp;quot;Cambria Math&amp;quot;;&quot;&gt;_&lt;/span&gt;&lt;span style=&quot;font-family: &amp;quot;Cambria Math&amp;quot;;&quot;&gt;1&lt;/span&gt;&lt;/p&gt;" style="rounded=0;whiteSpace=wrap;html=1;fillColor=none;strokeColor=#000000;fontColor=#000000;labelBackgroundColor=none;" parent="1" vertex="1">
                    <mxGeometry x="-459" y="492" width="200" height="60" as="geometry"/>
                </mxCell>
                <mxCell id="19" style="edgeStyle=none;html=1;exitX=0.5;exitY=1;exitDx=0;exitDy=0;entryX=0.5;entryY=0;entryDx=0;entryDy=0;fillColor=none;strokeColor=#000000;fontColor=#000000;labelBackgroundColor=none;" parent="1" source="20" target="22" edge="1">
                    <mxGeometry relative="1" as="geometry"/>
                </mxCell>
                <mxCell id="20" value="НАЧАЛО" style="ellipse;whiteSpace=wrap;html=1;fillColor=none;strokeColor=#000000;fontColor=#000000;labelBackgroundColor=none;" parent="1" vertex="1">
                    <mxGeometry x="-62" y="192" width="120" height="80" as="geometry"/>
                </mxCell>
                <mxCell id="21" value="" style="edgeStyle=none;html=1;entryX=0.5;entryY=0;entryDx=0;entryDy=0;fillColor=none;strokeColor=#000000;fontColor=#000000;labelBackgroundColor=none;" parent="1" source="22" target="28" edge="1">
                    <mxGeometry relative="1" as="geometry">
                        <mxPoint x="-2" y="382" as="targetPoint"/>
                    </mxGeometry>
                </mxCell>
                <mxCell id="22" value="Открытый ключ: g, p&lt;br&gt;&lt;span style=&quot;font-size: 13px; font-family: &amp;quot;Cambria Math&amp;quot;;&quot;&gt;R&lt;/span&gt;&lt;span style=&quot;font-size: 13px; font-family: &amp;quot;Cambria Math&amp;quot;;&quot;&gt;_2&lt;/span&gt;&lt;span style=&quot;font-size: 13px; font-family: &amp;quot;Cambria Math&amp;quot;;&quot;&gt;=&amp;nbsp;&lt;/span&gt;&lt;span style=&quot;font-size: 13px; font-family: &amp;quot;Cambria Math&amp;quot;;&quot;&gt;g&lt;/span&gt;&lt;span style=&quot;font-size: 13px; font-family: &amp;quot;Cambria Math&amp;quot;;&quot;&gt;^z&lt;/span&gt;&lt;span style=&quot;font-size: 13px; font-family: &amp;quot;Cambria Math&amp;quot;;&quot;&gt;&amp;nbsp;mod p&lt;/span&gt;&lt;br&gt;Закрытый ключ: z" style="shape=parallelogram;perimeter=parallelogramPerimeter;whiteSpace=wrap;html=1;fixedSize=1;fillColor=none;strokeColor=#000000;fontColor=#000000;labelBackgroundColor=none;" parent="1" vertex="1">
                    <mxGeometry x="-82" y="302" width="160" height="60" as="geometry"/>
                </mxCell>
                <mxCell id="23" value="" style="edgeStyle=none;html=1;exitX=0.5;exitY=1;exitDx=0;exitDy=0;entryX=0.5;entryY=0;entryDx=0;entryDy=0;fillColor=none;strokeColor=#000000;fontColor=#000000;labelBackgroundColor=none;" parent="1" source="28" target="29" edge="1">
                    <mxGeometry relative="1" as="geometry">
                        <mxPoint x="-2" y="462" as="sourcePoint"/>
                        <mxPoint x="-2" y="482" as="targetPoint"/>
                    </mxGeometry>
                </mxCell>
                <mxCell id="24" value="" style="edgeStyle=none;html=1;exitX=0.5;exitY=1;exitDx=0;exitDy=0;entryX=0.5;entryY=0;entryDx=0;entryDy=0;fillColor=none;strokeColor=#000000;fontColor=#000000;labelBackgroundColor=none;" parent="1" source="29" target="30" edge="1">
                    <mxGeometry relative="1" as="geometry">
                        <mxPoint x="-2" y="562" as="sourcePoint"/>
                        <mxPoint x="-2" y="582" as="targetPoint"/>
                    </mxGeometry>
                </mxCell>
                <mxCell id="28" value="Перехватываение открытого ключа&amp;nbsp;&lt;span style=&quot;font-size: 13px; font-family: &amp;quot;Cambria Math&amp;quot;;&quot;&gt;R&lt;/span&gt;&lt;span style=&quot;font-size: 13px; font-family: &amp;quot;Cambria Math&amp;quot;;&quot;&gt;_1&amp;nbsp;&lt;/span&gt;Алисы" style="rounded=0;whiteSpace=wrap;html=1;fillColor=none;strokeColor=#000000;fontColor=#000000;labelBackgroundColor=none;" parent="1" vertex="1">
                    <mxGeometry x="-102" y="392" width="200" height="60" as="geometry"/>
                </mxCell>
                <mxCell id="70" style="edgeStyle=orthogonalEdgeStyle;html=1;exitX=0;exitY=0.5;exitDx=0;exitDy=0;entryX=1;entryY=0.5;entryDx=0;entryDy=0;strokeColor=#000000;" edge="1" parent="1" source="29" target="13">
                    <mxGeometry relative="1" as="geometry"/>
                </mxCell>
                <mxCell id="29" value="Отправка&amp;nbsp;&lt;span style=&quot;font-size: 13px; font-family: &amp;quot;Cambria Math&amp;quot;;&quot;&gt;R&lt;/span&gt;&lt;span style=&quot;font-size: 13px; font-family: &amp;quot;Cambria Math&amp;quot;;&quot;&gt;_2&amp;nbsp;&lt;/span&gt;Алисе&amp;nbsp;" style="rounded=0;whiteSpace=wrap;html=1;fillColor=none;strokeColor=#000000;fontColor=#000000;labelBackgroundColor=none;" parent="1" vertex="1">
                    <mxGeometry x="-102" y="492" width="200" height="60" as="geometry"/>
                </mxCell>
                <mxCell id="74" style="html=1;exitX=0;exitY=0.5;exitDx=0;exitDy=0;entryX=1;entryY=0.5;entryDx=0;entryDy=0;strokeColor=#000000;fontSize=13;" edge="1" parent="1" source="30" target="73">
                    <mxGeometry relative="1" as="geometry"/>
                </mxCell>
                <mxCell id="75" style="edgeStyle=none;html=1;exitX=1;exitY=0.5;exitDx=0;exitDy=0;entryX=0;entryY=0.5;entryDx=0;entryDy=0;strokeColor=#000000;fontSize=13;" edge="1" parent="1" source="30" target="72">
                    <mxGeometry relative="1" as="geometry"/>
                </mxCell>
                <mxCell id="30" value="&lt;span style=&quot;font-size: 13px; font-family: &amp;quot;Cambria Math&amp;quot;;&quot;&gt;R&lt;/span&gt;&lt;span style=&quot;font-size: 13px; font-family: &amp;quot;Cambria Math&amp;quot;;&quot;&gt;_2&lt;/span&gt;" style="rounded=0;whiteSpace=wrap;html=1;fillColor=none;strokeColor=#000000;fontColor=#000000;labelBackgroundColor=none;" parent="1" vertex="1">
                    <mxGeometry x="-102" y="592" width="200" height="60" as="geometry"/>
                </mxCell>
                <mxCell id="32" style="edgeStyle=none;html=1;exitX=0.5;exitY=1;exitDx=0;exitDy=0;entryX=0.5;entryY=0;entryDx=0;entryDy=0;fillColor=none;strokeColor=#000000;fontColor=#000000;labelBackgroundColor=none;" parent="1" source="33" target="35" edge="1">
                    <mxGeometry relative="1" as="geometry"/>
                </mxCell>
                <mxCell id="33" value="НАЧАЛО" style="ellipse;whiteSpace=wrap;html=1;fillColor=none;strokeColor=#000000;fontColor=#000000;labelBackgroundColor=none;" parent="1" vertex="1">
                    <mxGeometry x="281" y="192" width="120" height="80" as="geometry"/>
                </mxCell>
                <mxCell id="34" value="" style="edgeStyle=none;html=1;entryX=0.5;entryY=0;entryDx=0;entryDy=0;fillColor=none;strokeColor=#000000;fontColor=#000000;labelBackgroundColor=none;" parent="1" source="35" target="41" edge="1">
                    <mxGeometry relative="1" as="geometry">
                        <mxPoint x="341" y="382" as="targetPoint"/>
                    </mxGeometry>
                </mxCell>
                <mxCell id="35" value="Открытые ключи: g, p&lt;br&gt;&lt;span style=&quot;font-size: 13px; font-family: &amp;quot;Cambria Math&amp;quot;;&quot;&gt;R&lt;/span&gt;&lt;span style=&quot;font-size: 13px; font-family: &amp;quot;Cambria Math&amp;quot;;&quot;&gt;_1&lt;/span&gt;&lt;span style=&quot;font-size: 13px; font-family: &amp;quot;Cambria Math&amp;quot;;&quot;&gt;=&amp;nbsp;&lt;/span&gt;&lt;span style=&quot;font-size: 13px; font-family: &amp;quot;Cambria Math&amp;quot;;&quot;&gt;g&lt;/span&gt;&lt;span style=&quot;font-size: 13px; font-family: &amp;quot;Cambria Math&amp;quot;;&quot;&gt;^x&lt;/span&gt;&lt;span style=&quot;font-size: 13px; font-family: &amp;quot;Cambria Math&amp;quot;;&quot;&gt;&amp;nbsp;mod p&lt;/span&gt;&lt;br&gt;&lt;span style=&quot;font-size: 13px; font-family: &amp;quot;Cambria Math&amp;quot;;&quot;&gt;R&lt;/span&gt;&lt;span style=&quot;font-size: 13px; font-family: &amp;quot;Cambria Math&amp;quot;;&quot;&gt;_3&lt;/span&gt;&lt;span style=&quot;font-size: 13px; font-family: &amp;quot;Cambria Math&amp;quot;;&quot;&gt;=&amp;nbsp;&lt;/span&gt;&lt;span style=&quot;font-size: 13px; font-family: &amp;quot;Cambria Math&amp;quot;;&quot;&gt;g&lt;/span&gt;&lt;span style=&quot;font-size: 13px; font-family: &amp;quot;Cambria Math&amp;quot;;&quot;&gt;^y&lt;/span&gt;&lt;span style=&quot;font-size: 13px; font-family: &amp;quot;Cambria Math&amp;quot;;&quot;&gt;&amp;nbsp;mod p&lt;/span&gt;&lt;br&gt;Закрытый ключ: x, y" style="shape=parallelogram;perimeter=parallelogramPerimeter;whiteSpace=wrap;html=1;fixedSize=1;fillColor=none;strokeColor=#000000;fontColor=#000000;labelBackgroundColor=none;" parent="1" vertex="1">
                    <mxGeometry x="251.5" y="302" width="179" height="60" as="geometry"/>
                </mxCell>
                <mxCell id="36" value="" style="edgeStyle=none;html=1;exitX=0.5;exitY=1;exitDx=0;exitDy=0;entryX=0.5;entryY=0;entryDx=0;entryDy=0;fillColor=none;strokeColor=#000000;fontColor=#000000;labelBackgroundColor=none;" parent="1" source="41" target="42" edge="1">
                    <mxGeometry relative="1" as="geometry">
                        <mxPoint x="341" y="462" as="sourcePoint"/>
                        <mxPoint x="341" y="482" as="targetPoint"/>
                    </mxGeometry>
                </mxCell>
                <mxCell id="61" style="edgeStyle=none;html=1;exitX=0;exitY=0.5;exitDx=0;exitDy=0;entryX=1;entryY=0.5;entryDx=0;entryDy=0;strokeColor=#000000;" edge="1" parent="1" source="41" target="28">
                    <mxGeometry relative="1" as="geometry"/>
                </mxCell>
                <mxCell id="62" style="edgeStyle=orthogonalEdgeStyle;html=1;exitX=0;exitY=0.5;exitDx=0;exitDy=0;entryX=1;entryY=0.5;entryDx=0;entryDy=0;strokeColor=#000000;" edge="1" parent="1" source="41" target="13">
                    <mxGeometry relative="1" as="geometry">
                        <Array as="points">
                            <mxPoint x="170" y="422"/>
                            <mxPoint x="170" y="131"/>
                            <mxPoint x="-195" y="131"/>
                            <mxPoint x="-195" y="422"/>
                        </Array>
                    </mxGeometry>
                </mxCell>
                <mxCell id="41" value="Перессылка открытого ключа&amp;nbsp;&lt;span style=&quot;font-size: 13px; font-family: &amp;quot;Cambria Math&amp;quot;;&quot;&gt;R&lt;/span&gt;&lt;span style=&quot;font-size: 13px; font-family: &amp;quot;Cambria Math&amp;quot;;&quot;&gt;_2&lt;/span&gt;&lt;br&gt;&amp;nbsp;Алисе" style="rounded=0;whiteSpace=wrap;html=1;fillColor=none;strokeColor=#000000;fontColor=#000000;labelBackgroundColor=none;" parent="1" vertex="1">
                    <mxGeometry x="241" y="392" width="200" height="60" as="geometry"/>
                </mxCell>
                <mxCell id="76" style="edgeStyle=none;html=1;exitX=0;exitY=0.5;exitDx=0;exitDy=0;entryX=1;entryY=0.5;entryDx=0;entryDy=0;strokeColor=#000000;fontSize=13;" edge="1" parent="1" source="42" target="71">
                    <mxGeometry relative="1" as="geometry"/>
                </mxCell>
                <mxCell id="42" value="&lt;span style=&quot;font-size: 13px; font-family: &amp;quot;Cambria Math&amp;quot;;&quot;&gt;R&lt;/span&gt;&lt;span style=&quot;font-size: 13px; font-family: &amp;quot;Cambria Math&amp;quot;;&quot;&gt;_3&lt;/span&gt;" style="rounded=0;whiteSpace=wrap;html=1;fillColor=none;strokeColor=#000000;fontColor=#000000;labelBackgroundColor=none;" parent="1" vertex="1">
                    <mxGeometry x="241" y="492" width="200" height="60" as="geometry"/>
                </mxCell>
                <mxCell id="58" value="Алиса" style="text;html=1;align=center;verticalAlign=middle;resizable=0;points=[];autosize=1;fillColor=none;strokeColor=none;fontColor=#000000;labelBackgroundColor=none;fontSize=18;fontStyle=1" parent="1" vertex="1">
                    <mxGeometry x="-393" y="142" width="74" height="34" as="geometry"/>
                </mxCell>
                <mxCell id="59" value="Ева" style="text;html=1;align=center;verticalAlign=middle;resizable=0;points=[];autosize=1;fillColor=none;strokeColor=none;fontColor=#000000;labelBackgroundColor=none;fontSize=18;fontStyle=1" parent="1" vertex="1">
                    <mxGeometry x="-24" y="142" width="51" height="34" as="geometry"/>
                </mxCell>
                <mxCell id="60" value="Боб" style="text;html=1;align=center;verticalAlign=middle;resizable=0;points=[];autosize=1;fillColor=none;strokeColor=none;fontColor=#000000;labelBackgroundColor=none;fontSize=18;fontStyle=1" parent="1" vertex="1">
                    <mxGeometry x="317" y="142" width="53" height="34" as="geometry"/>
                </mxCell>
                <mxCell id="65" value="" style="shape=cross;whiteSpace=wrap;html=1;fillColor=#a20025;fontColor=#ffffff;strokeColor=#6F0000;rotation=45;" vertex="1" parent="1">
                    <mxGeometry x="154" y="362" width="37" height="35" as="geometry"/>
                </mxCell>
                <mxCell id="71" value="&lt;span style=&quot;font-size: 13px; font-family: &amp;quot;Cambria Math&amp;quot;;&quot;&gt;K_1&lt;/span&gt;&lt;span style=&quot;font-size: 13px; font-family: &amp;quot;Cambria Math&amp;quot;;&quot;&gt;=&amp;nbsp;&lt;/span&gt;&lt;span style=&quot;font-size: 13px; font-family: &amp;quot;Cambria Math&amp;quot;;&quot;&gt;R_1&lt;/span&gt;&lt;span style=&quot;font-size: 13px; font-family: &amp;quot;Cambria Math&amp;quot;;&quot;&gt;^z&lt;/span&gt;&lt;span style=&quot;font-size: 13px; font-family: &amp;quot;Cambria Math&amp;quot;;&quot;&gt;&amp;nbsp;mod p&lt;br&gt;&lt;/span&gt;&lt;span style=&quot;font-size: 13px; font-family: &amp;quot;Cambria Math&amp;quot;;&quot;&gt;K_2&lt;/span&gt;&lt;span style=&quot;font-size: 13px; font-family: &amp;quot;Cambria Math&amp;quot;;&quot;&gt;= R&lt;/span&gt;&lt;span style=&quot;font-size: 13px; font-family: &amp;quot;Cambria Math&amp;quot;;&quot;&gt;_3&lt;/span&gt;&lt;span style=&quot;font-size: 13px; font-family: &amp;quot;Cambria Math&amp;quot;;&quot;&gt;^z&lt;/span&gt;&lt;span style=&quot;font-size: 13px; font-family: &amp;quot;Cambria Math&amp;quot;;&quot;&gt;&amp;nbsp;mod p&lt;/span&gt;" style="rounded=0;whiteSpace=wrap;html=1;fillColor=none;strokeColor=#000000;fontColor=#000000;labelBackgroundColor=none;" vertex="1" parent="1">
                    <mxGeometry x="-102" y="689" width="200" height="60" as="geometry"/>
                </mxCell>
                <mxCell id="84" style="edgeStyle=none;html=1;exitX=0.5;exitY=1;exitDx=0;exitDy=0;entryX=0.5;entryY=0;entryDx=0;entryDy=0;strokeColor=#000000;fontSize=13;" edge="1" parent="1" source="72" target="83">
                    <mxGeometry relative="1" as="geometry"/>
                </mxCell>
                <mxCell id="72" value="&lt;span style=&quot;font-size: 13px; font-family: &amp;quot;Cambria Math&amp;quot;;&quot;&gt;K_2&lt;/span&gt;&lt;span style=&quot;font-size: 13px; font-family: &amp;quot;Cambria Math&amp;quot;;&quot;&gt;=&amp;nbsp;&lt;/span&gt;&lt;span style=&quot;font-size: 13px; font-family: &amp;quot;Cambria Math&amp;quot;;&quot;&gt;R_2&lt;/span&gt;&lt;span style=&quot;font-size: 13px; font-family: &amp;quot;Cambria Math&amp;quot;;&quot;&gt;^y&lt;/span&gt;&lt;span style=&quot;font-size: 13px; font-family: &amp;quot;Cambria Math&amp;quot;;&quot;&gt;&amp;nbsp;mod p&lt;/span&gt;" style="rounded=0;whiteSpace=wrap;html=1;fillColor=none;strokeColor=#000000;fontColor=#000000;labelBackgroundColor=none;" vertex="1" parent="1">
                    <mxGeometry x="241" y="689" width="200" height="60" as="geometry"/>
                </mxCell>
                <mxCell id="79" style="edgeStyle=none;html=1;exitX=0.5;exitY=1;exitDx=0;exitDy=0;entryX=0.5;entryY=0;entryDx=0;entryDy=0;strokeColor=#000000;fontSize=13;" edge="1" parent="1" source="73" target="78">
                    <mxGeometry relative="1" as="geometry"/>
                </mxCell>
                <mxCell id="73" value="&lt;span style=&quot;font-size: 13px; font-family: &amp;quot;Cambria Math&amp;quot;;&quot;&gt;K_1&lt;/span&gt;&lt;span style=&quot;font-size: 13px; font-family: &amp;quot;Cambria Math&amp;quot;;&quot;&gt;=&amp;nbsp;&lt;/span&gt;&lt;span style=&quot;font-size: 13px; font-family: &amp;quot;Cambria Math&amp;quot;;&quot;&gt;R_2&lt;/span&gt;&lt;span style=&quot;font-size: 13px; font-family: &amp;quot;Cambria Math&amp;quot;;&quot;&gt;^x&lt;/span&gt;&lt;span style=&quot;font-size: 13px; font-family: &amp;quot;Cambria Math&amp;quot;;&quot;&gt;&amp;nbsp;mod p&lt;/span&gt;" style="rounded=0;whiteSpace=wrap;html=1;fillColor=none;strokeColor=#000000;fontColor=#000000;labelBackgroundColor=none;" vertex="1" parent="1">
                    <mxGeometry x="-459" y="689" width="200" height="60" as="geometry"/>
                </mxCell>
                <mxCell id="82" style="edgeStyle=none;html=1;exitX=1;exitY=0.5;exitDx=0;exitDy=0;entryX=0;entryY=0.5;entryDx=0;entryDy=0;strokeColor=#000000;fontSize=13;" edge="1" parent="1" source="78" target="81">
                    <mxGeometry relative="1" as="geometry"/>
                </mxCell>
                <mxCell id="78" value="&lt;font face=&quot;Cambria Math&quot;&gt;&lt;span style=&quot;font-size: 13px;&quot;&gt;Ширование М с ключом К_1&lt;br&gt;Результат С - шифротекст&lt;br&gt;&lt;/span&gt;&lt;/font&gt;" style="rounded=0;whiteSpace=wrap;html=1;fillColor=none;strokeColor=#000000;fontColor=#000000;labelBackgroundColor=none;" vertex="1" parent="1">
                    <mxGeometry x="-459" y="781" width="200" height="60" as="geometry"/>
                </mxCell>
                <mxCell id="85" style="edgeStyle=none;html=1;exitX=1;exitY=0.5;exitDx=0;exitDy=0;entryX=0;entryY=0.5;entryDx=0;entryDy=0;strokeColor=#000000;fontSize=13;" edge="1" parent="1" source="81" target="83">
                    <mxGeometry relative="1" as="geometry"/>
                </mxCell>
                <mxCell id="81" value="Расшифровка С ключом К_1&lt;br&gt;Зашифрока результата с ключом К_2" style="rounded=0;whiteSpace=wrap;html=1;fillColor=none;strokeColor=#000000;fontColor=#000000;labelBackgroundColor=none;" vertex="1" parent="1">
                    <mxGeometry x="-102" y="781" width="200" height="60" as="geometry"/>
                </mxCell>
                <mxCell id="83" value="Расшифровка ключом К_2" style="rounded=0;whiteSpace=wrap;html=1;fillColor=none;strokeColor=#000000;fontColor=#000000;labelBackgroundColor=none;" vertex="1" parent="1">
                    <mxGeometry x="241" y="781" width="200" height="60" as="geometry"/>
                </mxCell>
            </root>
        </mxGraphModel>
    </diagram>
</mxfile>